<svg xmlns="http://www.w3.org/2000/svg" viewBox="0 0 640 360"><g fill="#A71E23"><path d="M402.1 147.8c-3.2-.5-2.7-1.3-6.7-1.9l-4.8-.5c-5.6-.5-9.1-.8-10.1-1.1-2.9 0-9.1 0-18.4-.3-9.6 0-16.3 0-19.8-.3h-26.4l-6.7.3-13.1.3c-11.5.8-23.8 1.1-33.9 2.4-1.6 0-7.7 1.1-9.3 1.1-15.2 2.7-25.9 4.3-33.9 12.3-2.9 4.8-3.7 10.2-4.3 19v4.2h16.6v-.7c0-2.4.5-4.5 1.9-6.1 1.1-1.9 3.5-3.7 5.6-5.9 6.7-3.2 17.6-6.1 26.7-6.9 12.3-.8 22.2-1.1 29.9-1.3 1.3-.3 3.2-.5 5.6-.5h1.1c1.3 0 2.4 0 3.2.3 1.1-.3 2.7-.3 5.1-.3l5.1-.3h5.3l23.8-.5h5.3c14.7-.5 20.6-.3 34.2-.3h2.9l.8.3c9.3.3 13.9 4.5 13.9 12.6 0 3.2-1 6.8-2.6 9.8h18.2c.3-2.3.7-5.3.9-9.3-.5-6.9-1.3-9.9-3.5-15-4.3-6.9-5.4-8.5-12.6-11.4zM321 135.7s-1.3 2.2 1.3 3.5c2.6 1.3 8.8.9 8.4-.4-.4-1.3.9-4.8-2.6-5.7-3.5-.9-1.8-16.3-1.8-16.3V62.5s-4-6.2-5.7-.4c-1.8 5.7-.4 52.9-.4 52.9s.3 19.3.8 20.7zM354.9 135.2s7.5-41 7.9-46.3c.4-5.3 3.1-9.3 5.7-4 2.6 5.3-4 34.8-4 34.8l-1.3 14.1c.1.1-2.6 8.9-8.3 1.4zM388.9 137.9s-3.5 4 4.8 2.2c8.4-1.8 16.3-24.2 16.3-24.2s8.4-21.2-.9-13.7c-4 9.3-5.7 15-5.7 15s-8.8 14.5-11.5 14.5c-2.6 0-3 6.2-3 6.2zM412.6 140.9s21.2-14.5 21.6-19.4c.4-4.8 10.1-6.6 8.4.4-1.8 7.1-10.6 11-10.6 11l-12.8 10.6-4.4 5.3c0 .1-9.2-.4-2.2-7.9zM426.7 158.6l26.4-7.5s10.1-3.5 11-.4c.9 3.1-6.6 7.5-9.3 7-2.6-.4-15 1.8-16.7 3.1-1.8 1.3-7.1 3.1-7.1 3.1s-10.9 1.7-4.3-5.3zM426.7 174.9l35.3.4s10.1-.4 3.5 4.8c-4.8-.9-9.3-.9-9.3-.9s-26.4-3.1-26.4 0c0 3.2-10.1-.4-3.1-4.3zM287 132.1s2.2 11.9 7 .4c.4-12.8-1.3-33.9-1.3-33.9s-4.4-23.4-10.1-14.5c3.1 9.7 2.6 12.3 2.6 12.3s3.2 33.1 1.8 35.7zM244.3 106.1s-6.6-10.6-6.2.9c2.2 7.9 5.3 11 5.3 11l11.9 17.2s9.7 12.3 7.1-1.8c-6.2-8.8-11-15-11-15l-7.1-12.3zM218.7 144s-16.3-13.7-16.7-16.3c-.4-2.6-7.5-5.3-5.7 4.4 7.5 8.8 18.5 15.9 18.5 15.9s5.3 6.2 7.9-2.6c-1.3-2.2-4-1.4-4-1.4zM205.5 170s-25.1-.9-28.6-1.3-8.8 2.6.9 6.6c14.5-.4 23.4 1.3 23.4 1.3s11.4-.8 4.3-6.6z"/><g><path d="M6.1 201.1h.5c.8 0 1.4 0 1.9-.1.4.1.9.1 1.5.1.9 0 1.7 0 2.3-.1 1.9 0 3.5 0 4.5.1 2.3 0 4.1 0 5.3.1.3 0 .6 0 1.2.1h1.2c1.2 0 3.1 0 5.4.1h5.8c2.2 0 3.7.3 4.7.6.3.1.4.8.4 2.1v.6c.1.3.1.7.1 1 0 .3 0 .6-.1 1v.9c0 .4 0 .6.1.9 0 .4-.4.6-1 .6h-.3c-.1.1-.4.3-1 .3h-1.2c-.5-.1-.9-.1-1-.1h-9.9l.5 24.2c0 1.4.1 2.6.3 5v7.2c0 3.1.1 5.8.3 8v6.2c.4 16.1.5 28.7.5 37.7v.1c0 1.2-1.3 1.7-3.7 1.7-1 0-1.9-.1-2.8-.3-.9-.3-1.3-.5-1.3-.9-.3-1.2-.4-3.1-.4-5.8-.1-.4-.1-1.2-.1-2.3-.1-1-.3-1.9-.3-2.7v-.6c0-.1 0-.5-.1-.9v-2.1c.1-.1.1-.4.1-.9v-2.3c-.1-.9-.1-3.6-.1-8.4-.1-3.7-.3-10.1-.4-19.1l-.4-20c0-.6 0-1.5-.1-2.7v-8.5c-.1 0-.1-.1-.1-.5v-7.7c0-.4 0-.9-.1-1.6v-1.3c.1-.1.1-.3.1-.4v-.4c-1-.1-1.7-.3-2.1-.3H15c-.5.1-.9.1-1.2.1-.1 0-.6-.1-1.5-.3-.8-.1-1.3-.1-1.7-.1h-.4c-.4 0-1 .1-1.9.3-.9.1-1.5.3-1.9.3-.6 0-1.2-.1-1.7-.3v-.5c0-.9.1-3.6.4-7.9-.2 0 .2-.2 1-.2zM62.5 203.1c1.4.6 2.7 1.3 3.7 1.9.9.6 1.8 1.4 2.7 2.6.6.9 1.4 2.1 2.1 3.2 1.3 2.5 2.1 8.7 2.3 18.6v2.8c.1 1.4.1 2.5.1 3.4v3.6c.1 1.7.1 3.1.3 4.3v9c.1 2.5.1 5.9.1 10.3v8.8c0 .8 0 1.9-.1 3.5v3.4c-.1 3.4-.4 5.8-.5 7.2-.1.6-.1 1.7-.4 2.8 0 1.2-.1 1.9-.1 2.3-.6 1.9-1 3-1.3 3.4-.3.6-.6 1.5-1.3 2.5l-.6.6c-.4.3-.6.4-1 .5-.1.1-.5.4-1 .5-.5.1-.9.4-1 .5-1.9.6-4.1.9-6.6.9h-1.2c-1.9-.1-3.4-.4-4.3-.6-1.4-.4-2.6-.8-3.6-1.4-.1-.1-.4-.4-.6-.8-.3-.4-.5-.6-.6-.8-.6-.6-1.2-1.6-1.4-2.5-.3-.5-.6-1.7-1.2-3.4-.6-2.2-1.2-5.2-1.7-9 0-.4-.1-1.2-.3-2.2-.1-1-.1-1.8-.3-2.3-.1-.5-.1-1.3-.3-2.5-.1-1-.3-1.8-.4-2.3.1-.4.1-1 .1-1.8 0-.4 0-.9-.1-1.7v-2.3c-.1-.6-.1-1.5-.1-2.8 0-1.3 0-2.3-.1-3v-12.2c0-2.8 0-4.9.1-6.2V238c.1-1.2.1-1.9.1-2.6.3-5.8.5-10.7.8-14.6.1-.5.3-2.2.5-4.9.1-.6.3-1.4.4-2.3.1-.9.3-1.6.4-1.8.1-.3.4-.8.5-1.4.3-.6.4-1 .5-1.2.5-1 .9-1.7 1.3-2.1.6-.8 1.8-1.7 3.7-2.8 1-.5 2.1-.9 3.1-1.2.6-.1 1.6-.4 3-.5 2 .1 3.4.4 4.3.5zm-9.8 14.6c-.1.3-.1.5-.1.8 0 1 0 1.9-.1 2.6-.1.3-.1.6-.1 1v.6c0 .6-.1 1.3-.3 1.7 0 .3 0 .6.1 1s.1.8.1.9v.7c0 .5-.1 1.3-.3 2.3.1.5.3 1.3.3 2.5V253.7c0 1.2 0 1.9.1 2.5-.1.4-.1 1.2-.1 2.1 0 1.2 0 2.1.1 2.7 0 3.8.1 8.5.4 14.5.1 1.7.3 3.6.6 5.8.3 1.9.6 3.4 1.3 4.5 0 .4.4 1.5 1.2 3.4.6.9 1.2 1.5 1.8 1.9.6.6 1.4.9 2.5.9.6 0 1.3-.1 1.9-.4.9-.4 1.7-1.2 2.2-2.6.4-1.4.8-4.1 1-8.4.1-.9.1-2.6.1-5 .1-1.4.1-3.7.1-6.7V262.4c.1-.6.1-1.8.1-3.5 0-.6 0-1.3-.1-2.2v-1.9c0-1.9 0-3.4-.1-4.3v-7.9c0-3 0-5.2-.1-6.5v-3c0-1.2 0-2.1.1-2.6v-4.7c-.1-6.3-.5-10.3-1.4-11.9-.5-.9-1.4-1.7-2.6-2.3-1.2-.6-2.5-1-3.6-1-3.2 0-4.9 2.2-5.2 6.7v.4zM122.7 206.6c.3 3 .4 5.4.5 7.1l.3 1.7.4 8.7c.1 6.6.4 18.5.5 35.7v2.8c.1 1.3.1 2.2.1 2.8v7c0 1.7 0 3-.1 3.6.1.6.3 5.3.3 6.5V295.7c-.1.1-.1.4-.1.6v.3l.3.5c-.1.1-.9.5-2.3.9-1.9 0-3.2-.1-4-.4-1.4-.5-2.2-.9-2.2-1.3v-2.5c0-.3 0-.8-.1-1.4v-5.6c.1-.4.1-1.2.1-2.1 0-1.2 0-1.9-.1-2.5v-8.8l-.3-22.9v-6.1c0-.6 0-1.6-.1-2.7v-5.4c.1-.8.1-1.4.1-1.8-.1-.9-.1-2.2-.1-3.6l.3-7.4-.8 5.6c-.1 1.2-.4 2.5-.8 3.9-.1.4-.1.9-.3 1.6-.1.8-.1 1.4-.3 2.1-.1.6-.3 1.3-.4 1.8-.1.6-.6 2.5-1.3 5.6l-1 5.2c-.4 1.7-.6 2.8-.8 3.6-.8 3.2-2.2 7.1-4.1 11.6-1.2.4-2.3.6-3.7.6-.4 0-.8 0-.9-.1-.3-.1-.8-1.8-1.7-4.8-.1-.5-.4-1.4-.8-2.6-.3-1.2-.5-1.9-.6-2.3-.9-3-1.4-4.9-1.5-5.9-.3-.8-.5-1.8-.9-3.2-.4-1.3-.6-2.2-.8-2.7l-1.5-5.8-1.4-5.6-1.4-5.2c-.4-1.2-.5-1.8-.6-1.9l.4 2.7c0 .4 0 1.3.1 2.8.1 1.7.1 3.7.3 6.5.6 12.3.8 17.8 1 32.6.1 8.5.4 18.3.5 22.2v1.5c.1.6.1 1.2.1 1.3v1.6c-.1.4-.9.8-2.3 1.3-.6.1-1.9.1-3.9.1-1.4-.1-2.3-.4-2.5-.6 0-14.9-.3-31.4-.6-42.1l-.3-7.5c-.4-6.1-.3-12.1-.5-18.1 0-.9-.1-2.6-.3-4.8l-.1-4.1.3-8.7c0-1.8-.1-5.8-.1-7.8v-.4c.4-.4 1-.6 1.9-.6h.5c.5-.1 1-.3 1.4-.3.3 0 .8.1 1.4.3.9 0 1.8.4 2.5 1l1.7 3.4c.3.9.8 2.3 1.4 4.4 1.9 4.4 1.9 4.9 3.9 11.2.1.4.3 1.2.6 2.3.4 1.2.6 2.1.8 2.7l1.3 4.9c.3 1 .5 2.3 1 3.7l.9 3.5c.3.9.5 1.9.9 2.8.3.9.5 1.5.8 2.1.1.4.4.6.5.6.3-.1.6-1.2 1.3-3.4.5-2.2.9-4.5 1.3-6.8 0-.3.1-1 .3-2.3.3-1.3.5-2.3.6-3.2 0-.4.3-2.2.9-5.7.1-.6.5-1.7.5-3 .3-1.3.3-2.3.4-3 3-13.2 3.1-14.5 4.3-15.1.3-.1.8-.3 1.6-.3.6 0 1.3 0 1.7.1 1.4 0 2.6.3 3.5.6 1.4 1 2.1 1.6 2.2 1.7l-.1 1.5zM151.9 203.1c1.4.6 2.7 1.3 3.7 1.9.9.6 1.8 1.4 2.7 2.6.6.9 1.4 2.1 2.1 3.2 1.3 2.5 2.1 8.7 2.3 18.6v2.8c.1 1.4.1 2.5.1 3.4v3.6c.1 1.7.1 3.1.3 4.3v9c.1 2.5.1 5.9.1 10.3v8.8c0 .8 0 1.9-.1 3.5v3.4c-.1 3.4-.4 5.8-.5 7.2-.1.6-.1 1.7-.4 2.8 0 1.2-.1 1.9-.1 2.3-.6 1.9-1 3-1.3 3.4-.3.6-.6 1.5-1.3 2.5l-.6.6c-.4.3-.6.4-1 .5-.1.1-.5.4-1 .5-.5.1-.9.4-1 .5-1.9.6-4.1.9-6.6.9H148c-1.9-.1-3.4-.4-4.3-.6-1.4-.4-2.6-.8-3.6-1.4-.1-.1-.4-.4-.6-.8-.3-.4-.5-.6-.6-.8-.6-.6-1.2-1.6-1.4-2.5-.3-.5-.6-1.7-1.2-3.4-.6-2.2-1.2-5.2-1.7-9 0-.4-.1-1.2-.3-2.2-.1-1-.1-1.8-.3-2.3-.1-.5-.1-1.3-.3-2.5-.1-1-.3-1.8-.4-2.3.1-.4.1-1 .1-1.8 0-.4 0-.9-.1-1.7v-2.3c-.1-.6-.1-1.5-.1-2.8 0-1.3 0-2.3-.1-3v-12.2c0-2.8 0-4.9.1-6.2V238c.1-1.2.1-1.9.1-2.6.3-5.8.5-10.7.8-14.6.1-.5.3-2.2.5-4.9.1-.6.3-1.4.4-2.3.1-.9.3-1.6.4-1.8.1-.3.4-.8.5-1.4.3-.6.4-1 .5-1.2.5-1 .9-1.7 1.3-2.1.6-.8 1.8-1.7 3.7-2.8 1-.5 2.1-.9 3.1-1.2.6-.1 1.6-.4 3-.5 2.1.1 3.5.4 4.4.5zm-9.8 14.6c-.1.3-.1.5-.1.8 0 1 0 1.9-.1 2.6-.1.3-.1.6-.1 1v.6c0 .6-.1 1.3-.3 1.7 0 .3 0 .6.1 1s.1.8.1.9v.7c0 .5-.1 1.3-.3 2.3.1.5.3 1.3.3 2.5V253.7c0 1.2 0 1.9.1 2.5-.1.4-.1 1.2-.1 2.1 0 1.2 0 2.1.1 2.7 0 3.8.1 8.5.4 14.5.1 1.7.3 3.6.6 5.8.3 1.9.6 3.4 1.3 4.5 0 .4.4 1.5 1.2 3.4.6.9 1.2 1.5 1.8 1.9.6.6 1.4.9 2.5.9.6 0 1.3-.1 1.9-.4.9-.4 1.7-1.2 2.2-2.6.4-1.4.8-4.1 1-8.4.1-.9.1-2.6.1-5 .1-1.4.1-3.7.1-6.7V262.4c.1-.6.1-1.8.1-3.5 0-.6 0-1.3-.1-2.2v-1.9c0-1.9 0-3.4-.1-4.3v-7.9c0-3 0-5.2-.1-6.5v-3c0-1.2 0-2.1.1-2.6v-4.7c-.1-6.3-.5-10.3-1.4-11.9-.5-.9-1.4-1.7-2.6-2.3-1.2-.6-2.5-1-3.6-1-3.2 0-4.9 2.2-5.2 6.7v.4zM191.7 206.4c.6.6 1.2 1.3 1.7 2.1 1.9 2.5 3.2 7.2 3.9 14.2.1.6.3 2.8.4 10.9v2.6c0 1.2 0 2.5-.1 3.7-.1 1.3-.3 2.7-.4 4.3-.1 1.4-.3 2.6-.4 3.2-.1 1.2-.3 2.2-.5 3.1-.1.9-.4 1.6-.6 2.2-.1.5-.5 1.2-1.2 1.8-.5.6-.9 1.2-1.2 1.3-.1.3-.8.8-1.7 1.6-.9.8-1.4 1.3-1.7 1.5l2.7 3.4c.3.4.6 1 1.3 1.9.6.9.9 1.5 1 1.8l.8 1.5c.4.8.6 1.4.6 1.9.1.5.3 1.3.5 2.3.3 1 .4 2.1.4 3.2.1 1.2.1 2.5.3 4 .1 1.5.1 3.4.1 5.4l.3 9.6v2.8c0 .3 0 .6-.1 1 0 .4 0 .8-.1.9 0 .3-.8.6-2.3 1h-.8c-.4 0-.9-.1-1.6-.3-.6-.1-1-.1-1.2-.1-1.4 0-2.1-.3-2.1-.6V291.9c.1-2.5.1-4.3.1-5.6v-1.9c0-3.1-.3-6.1-.6-8.9-.6-2.7-1.6-5.4-2.8-8-1.3-2.6-2.8-4-4.7-4.3-.1 0-.4-.1-.8-.3-.4-.1-.6-.3-.9-.3h-.3c-.1.1-.1.1-.3.1-.1.1-.3.5-.4 1 .1.1.1.6.1 1.7-.1 1.2-.1 2.1-.1 3V272.8c0 2.5 0 4.7.1 6.8l.1 11.4c.1 2.1.1 3.5.3 4.1-.1 1-.1 1.5-.3 1.5 0 .8-.8 1.3-2.5 1.4-.4.1-1.4.3-3.1.4-1.6-.1-2.3-.4-2.3-.6V282c.1-2.2.1-4.1.1-5.6v-1.7c0-.9 0-1.7.1-2.3-.1-.6-.1-1.5-.3-2.8v-4c.1-.4.1-.8.1-.9v-.1l-.1-.6c.1-.9.1-1.8.1-2.8V257.6c0-1.9 0-4.8-.1-8.8v-9.9l-.1-3.9v-2.7c.1-.9.1-1.7.1-2.1 0-.4 0-.6-.1-1v-8.4c0-12.9.3-13.4.6-17.6.1-1.2 1.7-.6 2.1-.8.9-.1 1.7-.1 2.6-.1h2.2c.8 0 1.4-.1 1.9 0 2.6.4 2.5.1 4.9.6 1.9.8 3.1 1.4 3.6 1.8.8.1 1.5.7 2.7 1.7zm-12.1 28.3c0 2.7 0 2.6-.1 3.7l-.1 8.5v3.8c.1 2.2.4 3.5.8 4 .1 0 .3 0 .4.1h.4c1.9 0 3.6-.5 5-1.5s2.6-3.7 3.4-8c.8-4.4 1.2-7.1 1.2-12.3 0-5.6-.4-9.8-1.2-13-.1-1.9-1.7-6.9-2.2-7.4-.1-.3-.5-.6-1-1.2-.5-.5-.8-.9-.9-1-1.2-.6-3.1-.9-5.2-.9-.4 0-.5.3-.6.6-.3.6-.4 1.9-.4 3.6 0 .3 0 .5.1.9 0 .9.1 3.2.1 6.8.3 3.6.3 6.7.4 9.4v3.9zM232.4 210.1c1.2 3.1 1.7 7.6 1.7 13.7 0 .6 0 1.6-.1 2.8v2.6c-.3 3.2-.4 4.9-.4 5v.6c0 .5 0 1.3-.1 2.1-.1.9-.1 1.5-.1 1.8-.1 1-.4 2.6-.8 4.4-1 5.9-4.1 10.9-9.4 14.7l5.3 2.8c3.7 2.1 5.7 10.7 5.7 25.8 0 3.7 0 6.5-.1 8 0 1.3 0 2.3-.1 3 0 1 .1 1.7.3 2.1-.5.5-1.2.8-1.9.8h-4.1c-1.3-.3-1.9-.5-1.9-.8 0-.5 0-2.2-.1-5.2-.1-3.1-.3-5.9-.4-8.5-.6-9-1.3-14.6-1.9-16.4-.6-1.5-1.6-2.8-2.7-3.6-3.2-1.9-5.3-2.8-6.2-2.8-.1 0-.3.4-.4 1.2-.3.5-.4 1.5-.4 3.1v.5c0 .3 0 1.7-.1 4v4.3c-.1 1-.1 2.8-.1 5.4 0 3.1 0 5.4-.1 7.2 0 1.8 0 3-.1 3.7V296.3c.1.3.1.5.1.6 0 .1 0 .3-.1.5v.4c0 .4-.8.8-2.3 1.2-.5 0-1 .1-1.6.1-2.8 0-4.3-.3-4.4-.8-.1-.6-.1-1.9-.1-3.9v-4.3c.1-1.6.1-3.7.3-6.6.1-2.8.1-5.4.3-7.9 0-1 .1-2.7.3-4.9v-10.1c.1-2.3.1-4 .1-5.3 0-.3 0-.6.1-1v-1.8c-.1-.4-.1-.6-.1-.9 0-.5 0-1 .1-1.7v-2.2c.1-1.8.3-3.1.3-4-.1-1-.1-2.6-.1-4.4v-13c0-2.5.1-4.3.3-5.4-.1-1.4-.3-2.3-.3-2.8 0-.4 0-.9.1-1.7v-1.8c.1-1.3.1-3 .1-4.9.1-4.1.5-6.3 1.2-6.6.5-.1 1.4-.3 2.8-.4 2.5-.3 4.9-.4 7.5-.4.4 0 .8-.1 1-.1l4.3.4c.8.1 1.9.5 3.4 1 2.2 1.3 4 3.4 5.2 6.5zm-18.2.7c-.3 1.5-.4 2.8-.4 4.1 0 .9-.1 3.7-.1 8.4-.3 4.7-.3 7.5-.3 11.2 0 6.2 0 10.3.1 12.7.1.5.1 1.3.1 2.3v.9c.1.5.4.9.5 1.3l.6.3c.1 0 .5-.1 1.4-.1.9-.1 1.6-.4 1.9-.6 0-.1.1-.3.5-.5l1.2-.9c.4-.4.8-.6 1-.9 1.8-2.2 3.1-4.7 3.9-7.5 1.2-4.4 1.8-9.4 1.8-18 0-4.9-.3-8.3-1.4-10.5-1.3-2.5-3.5-3.4-7.4-3.4-1.6 0-2.5-.1-2.6-.3-.3.2-.7.8-.8 1.5zM261.2 203.1c1.4.6 2.7 1.3 3.7 1.9.9.6 1.8 1.4 2.7 2.6.6.9 1.4 2.1 2.1 3.2 1.3 2.5 2.1 8.7 2.3 18.6v2.8c.1 1.4.1 2.5.1 3.4v3.6c.1 1.7.1 3.1.3 4.3v9c.1 2.5.1 5.9.1 10.3v8.8c0 .8 0 1.9-.1 3.5v3.4c-.1 3.4-.4 5.8-.5 7.2-.1.6-.1 1.7-.4 2.8 0 1.2-.1 1.9-.1 2.3-.6 1.9-1 3-1.3 3.4-.3.6-.6 1.5-1.3 2.5l-.6.6c-.4.3-.6.4-1 .5-.1.1-.5.4-1 .5-.5.1-.9.4-1 .5-1.9.6-4.1.9-6.6.9h-1.2c-1.9-.1-3.4-.4-4.3-.6-1.4-.4-2.6-.8-3.6-1.4-.1-.1-.4-.4-.6-.8-.3-.4-.5-.6-.6-.8-.6-.6-1.2-1.6-1.4-2.5-.3-.5-.6-1.7-1.2-3.4-.6-2.2-1.2-5.2-1.7-9 0-.4-.1-1.2-.3-2.2-.1-1-.1-1.8-.3-2.3-.1-.5-.1-1.3-.3-2.5-.1-1-.3-1.8-.4-2.3.1-.4.1-1 .1-1.8 0-.4 0-.9-.1-1.7v-2.3c-.1-.6-.1-1.5-.1-2.8 0-1.3 0-2.3-.1-3v-12.2c0-2.8 0-4.9.1-6.2V238c.1-1.2.1-1.9.1-2.6.3-5.8.5-10.7.8-14.6.1-.5.3-2.2.5-4.9.1-.6.3-1.4.4-2.3.1-.9.3-1.6.4-1.8.1-.3.4-.8.5-1.4.3-.6.4-1 .5-1.2.5-1 .9-1.7 1.3-2.1.6-.8 1.8-1.7 3.7-2.8 1-.5 2.1-.9 3.1-1.2.6-.1 1.6-.4 3-.5 2 .1 3.4.4 4.3.5zm-9.8 14.6c-.1.3-.1.5-.1.8 0 1 0 1.9-.1 2.6-.1.3-.1.6-.1 1v.6c0 .6-.1 1.3-.3 1.7 0 .3 0 .6.1 1s.1.8.1.9v.7c0 .5-.1 1.3-.3 2.3.1.5.3 1.3.3 2.5V253.7c0 1.2 0 1.9.1 2.5-.1.4-.1 1.2-.1 2.1 0 1.2 0 2.1.1 2.7 0 3.8.1 8.5.4 14.5.1 1.7.3 3.6.6 5.8.3 1.9.6 3.4 1.3 4.5 0 .4.4 1.5 1.2 3.4.6.9 1.2 1.5 1.8 1.9.6.6 1.4.9 2.5.9.6 0 1.3-.1 1.9-.4.9-.4 1.7-1.2 2.2-2.6.4-1.4.8-4.1 1-8.4.1-.9.1-2.6.1-5 .1-1.4.1-3.7.1-6.7V262.4c.1-.6.1-1.8.1-3.5 0-.6 0-1.3-.1-2.2v-1.9c0-1.9 0-3.4-.1-4.3v-7.9c0-3 0-5.2-.1-6.5v-3c0-1.2 0-2.1.1-2.6v-4.7c-.1-6.3-.5-10.3-1.4-11.9-.5-.9-1.4-1.7-2.6-2.3-1.2-.6-2.5-1-3.6-1-3.2 0-4.9 2.2-5.2 6.7v.4zM339.9 203c-.1 0-.1.1-.1.3-.1.1-.1.3-.3.4.1.4.3.6.3.8 0 .1-.1.5-.3 1 .1.3.1.6.1 1 0 .3 0 .6-.1 1.3-.1.6-.3 1.2-.3 1.4v1c0 1.4 0 2.5-.1 3.2-.6 7.2-1.2 13.2-1.6 18-.1.6-.1 1.5-.3 2.7-.1 1.3-.3 2.2-.3 2.7 0 .1 0 .9-.1 2.5-.1 1.4-.3 2.6-.3 3.2l-.6 5.8c-1.7 18.6-3.5 32.7-5.2 42.1-.4 2.2-.6 3.4-.8 3.5 0 .4-.3 1.6-.8 3.5-.1.1-.8.4-1.7.8h-.4c-.1-.1-.3-.1-.4-.1-.4 0-.9.1-1.6.3-.6.1-1 .3-1.2.3-2.5-.4-3.9-.5-4-.6-1-.4-1.7-.8-1.8-1.3-3-8.4-5-16.7-5.9-24.9-.1-.9-.6-7.2-1.6-18.7-1-11.6-1.8-19-2.3-22.2-.4 3.4-.9 9.8-1.5 19.5-.8 9.7-1.3 16.3-1.7 19.5l-.4 5c-.3 1.7-.4 3.2-.4 4.9-.1.4-.3 1.8-.5 4.3l-.4 4c-.5 5-.9 8.1-1.3 9.3-.1.1-.9.3-2.3.3-.4.1-1 .1-2.1.1-1 0-1.8 0-2.2-.1h-.8c-.5 0-1.2 0-1.9-.1-.9-.1-1.4-.1-1.8-.1-1.2-.4-1.8-.5-1.8-.6-.3-.3-.5-1-.9-2.3-.1-.4-.3-1.4-.6-3.1-.6-4.3-1.6-10.7-2.5-19.5l-.3-2.3-.5-3.2c0-.4 0-1-.1-1.9l-.4-2.2c-.1-.9-.3-2.5-.6-4.8l-2.8-21.4c-.4-2.5-.6-4.4-.8-5.9-.4-.8-.5-1.8-.5-3.2 0-.1 0-.4.1-.8V225c-.1-.6-.5-2.3-1-5.2l-1.8-13.8c-.1-1-.3-1.7-.3-1.9v-.9c0-.1 0-.3-.1-.3h-.1c0-.6.8-1 2.2-1.3 1.8-.5 3-.8 3.5-.8h.4c.1.1.3.1.4.1.1-.1.5-.1.9-.1 1 0 1.7.3 1.8.6.4.5 1.3 6.3 2.6 17.4.1 1.2.4 2.8.5 5.2l.4 2.1c.1 1.4.4 2.5.5 3.1.1.6.1 1.6.3 2.8.1 1.3.3 2.2.4 2.8l1.3 11.5c.3 1.7.4 3.4.4 4.9v1c.3.9.5 1.9.6 3.4.1 1.4.3 2.2.4 2.6l.6 5.4c.9 9.2 1.6 14.3 1.8 15.2.3 1.4.5 2.1.8 2.1.8 0 2.1-12 4-36.2l.6-8.8c.3-1.9.5-5.2.9-9.4.3-5.2.5-8.3.6-9.3.1-2.6.4-4.4.6-5.6l.8-4.1c.1-.5 1.3-.8 3.4-.8 3.5 0 5.2.4 5.2 1v.8c0 2.5.5 5.9 1.6 10.5.5 2.2 1.2 5.6 1.9 10.2.1.5.1 1.3.3 2.2.1.9.3 1.7.4 2.1.4 1.4.6 3.1.6 4.8.1.6.3 2.1.6 4.3l.5 4.8c.5 3.6 1.2 8.4 1.8 14.5.6 6.1 1.2 10.1 1.4 11.9.3 1.3.4 2.5.4 3.5.3.9.4 1.9.4 3.1.1.1.1.5.3 1 .1.5.3.8.3.9.3.9.4 1.3.4 1.4.1.1.3.4.4.5.1-.1.1-.1.1-.3l.1-.1c.1-.5.3-.9.3-1v-.3c.1-.3.1-.6.3-1.2.1-.4.3-.8.4-.9v-1.3c.1-.4.1-.8.1-1v-.5c0-.4 0-.9.1-1.8l.4-1.9c.1-1.5.4-3.4.5-5.4l.6-7.8.6-8c.1-2.2.4-3.6.8-4.4 0-.4 0-.9-.1-1.4v-2.6c.1-.5.1-.9.1-1.2.1-.6.1-1.6.1-2.7l.3-2.7c.1-2.2.3-4.1.4-5.6.3-.9.4-2.1.4-3.7v-1.9c.1-1.8.4-4.1.8-6.8.3-3.2 1-9 2.2-17.2.1-.4.8-.6 2.2-.8.9 0 2.2.1 4.1.3 1.2.1 1.8.5 1.9.9h.1zM397.1 210.3c.4 1.9.6 5.4.8 10.3v4.6l.1 2.7v9.6c0 6.3-.3 11.6-.9 15.8-.1.1-.3.6-.5 1.3-.3.8-.4 1.3-.5 1.7l-.6 1.3c-.3.5-.5.9-.6 1.2-1 1.4-2.3 2.6-3.9 3.6-1.4.9-4 1.4-7.8 1.4H382c-.4 0-.6 1-.6 3.1v3.1c.1 2.5.3 7.2.5 14.2.1 7 .3 11.5.3 13.7 0 .1 0 .1-.1.1l-.6-.3c-.3-.1-.6-.1-1-.1h-.4c-1.2.1-2.1.3-2.6.3h-.9c-1.2-.1-1.8-.4-1.8-.6v-.1l-.1-.6c-.1-.4-.1-.6-.3-.9-.1-1.4-.3-4.6-.4-9.6v-5c0-.4-.1-1-.3-1.9-.1-.8-.1-1.4-.1-1.9v-4.4c-.1-4.3-.3-7.6-.4-10.1V256.1c0-.4 0-.8-.1-1v-4.3c-.1-.9-.1-1.4-.1-1.8 0-.9 0-1.7.1-2.3v-6.3c0-.9 0-1.6-.1-1.9v-1.4l-.1-2.8.1-4c-.1-2.1-.1-3.6-.1-4.5 0-1.2 0-2.2.1-3.1l-.1-4.8v-2.6c.1-.8.1-1.4.1-1.9v-.8l-.1-1v-4.2c.1-.8.1-1.3.3-1.7-.1-.5-.1-1-.1-1.6 0-2.1.1-3.4.3-3.9 0-.6 1.6-1.2 4.7-1.3 1.9 0 3.5 0 4.6.1 3.2.6 4.8.9 4.9.9 1.9.6 3.5 1.4 4.7 2.2 1.5.9 2.7 2.1 3.6 3.4.3 1.3.8 2.9 1.2 4.8zm-16.9 2.7c0 2.7.1 6.9.3 12.4.1 5.6.3 8.4.3 8.8 0 .1 0 .4.1.8s.1.6.1.8v.3c0 .3 0 .6-.1 1.2v2.7c.1.6.1 1 .1 1.3.1 6.3.3 10.2.4 11.6V254.3c0 .9.1 1.5.4 1.9.1.1.3.3.6.3.1 0 .4 0 .7-.1h.4c1.2 0 2.3-.5 3.5-1.4 1-.9 1.8-2.1 2.5-3.6.6-1.6.9-3 1-4.3.1-1.2.1-3.1.1-5.7.1-2.6.1-4.4.3-5.3v-10.8c0-5.8-.4-10.5-1.3-13.7-.8-3.2-2.5-4.9-5-4.9-.1 0-.8-.1-1.7-.4-.9-.1-1.6-.3-1.9-.3h-.1c-.6.7-.7 3-.7 7zM414.6 217.4c-.1 9.4-.3 15.1-.3 17.1 0 1 0 2.6-.1 4.8V246c.1 1 .1 1.7.1 2.1v.9c0 2.5.1 4 .3 4.9-.1 2.7-.3 4.4-.3 5V272.5c0 1.9 0 3.5.1 4.4v1.4c-.1.6-.1 1.2-.1 1.6v.8c-.1.6-.1 1.7-.1 2.8v4.4c-.1.6-.1 1.7-.1 2.8 0 1.7.3 2.7.1 3.4 0 1.2-.1 1.9-.3 2.3.1.1.1.4.1.6v.1c-.3.4-.8.5-1.4.5h-.9c-1.2 0-2.3 0-3.1.1-1.2-.4-1.8-.6-1.9-.8-.5-.6-.5-2.6-.5-5.6v-7.6c0-.5 0-1.4-.1-2.7v-3.2c.1-.9.1-2.6.1-4.8v-43.5c0-2.8 0-4.9.1-6.3V204c0-.8 1.3-1.2 4.5-1.2h4c0 .3-.1 5.2-.2 14.6zM450 206.6l.6 2.2c.4.9.6 1.5.8 1.9.3 1.8.4 3.5.4 5.2.1.9.3 1.4.3 1.7 0 .6-.1 1.4-.3 2.5 0 1-.1 2.1-.3 3.1 0 .4-.6.5-1.9.5-.3-.1-.8-.3-1.5-.4-.6-.1-1.3-.3-1.8-.4-1.4-.5-2.1-.9-2.1-1-.1-.6-.1-1.8 0-3.5.1-1.6.1-2.6.1-3.1-.1-2.5-.8-4.4-1.7-5.7-.9-1.2-1.9-1.8-3.1-1.8-.4 0-.8.1-1.3.4-.8.6-1.6 1.7-2.5 3.1-.9 1.4-1.7 4.1-2.6 8-.9 4-1.3 8.5-1.3 13.8 0 .5-.1 1.3-.3 2.3-.1 1-.3 1.8-.3 2.5v.5c.1 1.4.1 3.9.3 7.1.1 3.4.3 5.8.4 7.5l.4 6.6c.1 1.6.3 2.7.3 3.5 0 .3 0 .6-.1 1.3v1.2c.3 1.2 0 2.3.1 4.5.1.9.1 3.4.3 4.8.1 1.4.3 2.5.3 2.8 0 3 .4 8 1.3 10.5 1 2.8 3 4 4.4 4.4.9 0 1.5-.3 2.2-.8 1.7-1.4 3.1-6.2 3.1-12.1v-8.2l.1-3.6h1.4c.4-.1 1-.1 1.9-.1.9 0 1.6 0 1.9.1 1.4.1 2.2.4 2.2.8 0 1.7.1 3 .3 3.7.1.9.1 2.5.1 4.4v3.2c0 4.4-.3 7.5-.6 9.4-1.2 4.5-3.9 7.5-8.3 9.2-1.3.5-2.6.8-4 .8h-.6c-.4 0-.8 0-1.4-.1h-1.9c-1.3-.3-2.5-.8-3.6-1.7-1.2-.6-2.1-1.5-2.8-2.7-.9-1-1.6-2.3-1.9-3.7-.6-2.7-1.3-5.9-1.7-9.6-.1-.4-.1-1-.3-1.8V278c-.1-.9-.3-2.2-.3-3.9 0-.9-.1-2.3-.3-4.3 0-1.9 0-3.5-.1-4.5-.1-1.9-.3-7.2-.6-15.9-.1-.9-.1-2.2-.1-3.9V244c-.1-.8-.1-1.9-.1-3.6V239c-.1-1.2-.1-2.8-.1-4.8.1-8.4.8-15.1 2.2-20.2.1-.4.3-1 .4-1.8.3-.8.4-1.3.5-1.6.5-1.4.9-2.3 1.2-2.7 2.5-4.3 5-7 7.8-8 1.4-.4 2.5-.5 3.2-.5h.5c3.7 0 6.7 1.3 9 3.9.6.8 1.3 1.9 1.8 3.3zM474.5 204h1.2c.6 0 1.8-.1 3.4-.3.4.1 1.2.1 2.3.3 1 .1 1.7.1 1.8.1h3.8c1.3 0 2.2 0 2.7.1.9.1 1.5.4 1.9.5.3.1.4.6.4 1.6v.6c.1.4.3 1.2.4 2.1 0 .9 0 1.4.1 1.8 0 .4-.4.6-1 .6h-.3c-.1.1-.3.3-.6.3s-.8-.1-1.7-.3c-.3.1-.6.1-1.3.1h-10.3l.5 23.8c0 2.1.1 4 .3 5.8V255.3c0 1.9.1 3.4.1 4.3v3c.4 16.1.5 27.3.5 33.5v.1c0 1.2-1.3 1.7-3.7 1.7-2.7 0-4.1-.4-4.1-1.2-.1-.8-.3-2.7-.3-5.8-.1-.4-.1-1.2-.1-2.3v-4.2c-.1-.5-.1-.9-.1-1.3v-.8c.1-.1.1-.4.1-.9v-2.3c-.1-.9-.1-2.2-.1-4.1-.1-3.7-.3-6.9-.4-15.9l-.3-24c0-.6 0-1.6-.1-2.7V223.7c-.1 0-.1-.5-.1-.5v.8-6.5c0-.4 0-1.2-.1-2.5v-2.1c.1-.1.1-.3.1-.4v-.4c-1-.1-1.7-.3-2.1-.3H466c-.5.1-.9.1-1.2.1-.1 0-.6-.1-1.4-.1-.9-.3-1.4-.3-1.8-.3-3.2-.1-5.3-.4-6.2-.6-.1-.5-.3-1-.3-1.4 0-.9 0-1.4.1-1.6v-.6c0-.5.1-1.2.3-1.8.1-.9.4-1.4.5-1.6l.4-.1c.3-.1.5-.1.8-.1h.5c.8 0 1.4 0 1.9-.1.4.1.9.1 1.5.1.9 0 1.7 0 2.3-.1 1.9 0 3.5 0 4.5.1 2.3 0 4.1 0 5.3.1.4.1.8.1 1.3.2zM506.6 214.5l-.1 3.7v2.5c0 1.2 0 2.5.1 4.1v4.7c.1 1 0 3 .1 5.8 0 2.8-.1 5 0 6.7v1.3c0 .4 0 1 .1 1.7v2.1l-.1 1c.1 2.2.1 6.1.1 11.4 0 5.3.1 9.2.1 11.9.1 1.2.1 1.9.1 2.3v.1c.1.4.1.9.1 1.6V276.6c0 .3-.1.6 0 1s.1.6.1.8c.8 6.6 1.7 8.4 2.3 9.3 1 1.3 2.3 2.1 4 2.1h.1c2.6 0 4.9-.5 7.1-3.9.8-1.7 1.4-2.8 1.8-5.4 0-.1 0-.3.1-.6.1-.4.1-.6.1-1 .3-3 .4-6.5.6-10.6V263c.1-2.6.1-4.5.3-5.9l.1-5v-2.3l.1-2.8v-5.2l.1-3.1c0-3.2.1-7.1 0-11.6 0-4.7.1-10.2.1-11.9v-3.6l.1-2.8c-.1-1.3-.1-2.2-.1-2.8v-2c.1-.1.5-.3 1.3-.3h.4l3.2.3c.8-.1 1.4-.1 1.8-.1.5 0 .8 0 .9.1.3 1 .4 2.2.5 3.7 0 1.3-.1 3 0 4.9 0 1.9 0 3.4.1 4.5l-.3 3.1v3.1c0 .9 0 3.1.1 6.3v.5c0 .4 0 .9.1 1.7l-.1 1.5v.5c0 .4 0 1.2.1 2.2v1.9l-.1 4.3-.1 8.4-.1 4.3-.1 4.9c.1.5.1 1.2.1 1.9l-.1 1.4v1.3c-.1.4-.1 1-.3 2.2-.1 1-.1 1.7-.1 2.1l-.3 3.9c-.3 4.7-.8 8.9-1.8 12.8-.3.8-.8 1.9-1.5 3.5-1.3 1.9-2.1 3.1-2.2 3.2-.1.4-.5.6-1.2 1.2-.6.5-1 1-1.3 1.4-1 1-2.5 1.9-4.3 2.6-1.9.5-3.7.9-5.6.9h-.3c-1.7 0-3-.3-4-.5-1-.3-2.2-.8-3.5-1.5-1.3-.9-2.3-2.2-3.2-4.3-.8-1.9-1.7-4.4-2.3-7.4-1.5-7-2.1-16.5-1.9-28.7v-35.1l-.1-9.7v-.3l.1-1.5c-.1-.7-.1-1.2-.1-1.4 0-.1 0-.1.1-.3 0-.6 0-1.2.1-1.6-.1-.3-.1-.5-.1-.8-.1-.4-.1-.6-.1-.8v-.3c0-.1.8-.4 2.2-.6.1 0 .8.1 1.7.3.9.1 1.8.3 2.5.6h.5c.9 0 1.4.3 1.4.9.6 1.1.6 4.2.5 9.3zM568.4 210.1c1.2 3.1 1.7 7.6 1.7 13.7 0 .6 0 1.6-.1 2.8v2.6c-.3 3.2-.4 4.9-.4 5v.6c0 .5 0 1.3-.1 2.1-.1.9-.1 1.5-.1 1.8-.1 1-.4 2.6-.8 4.4-1 5.9-4.1 10.9-9.4 14.7l5.3 2.8c3.7 2.1 5.7 10.7 5.7 25.8 0 3.7 0 6.5-.1 8 0 1.3 0 2.3-.1 3 0 1 .1 1.7.3 2.1-.5.5-1.2.8-1.9.8h-4.1c-1.3-.3-1.9-.5-1.9-.8 0-.5 0-2.2-.1-5.2-.1-3.1-.3-5.9-.4-8.5-.6-9-1.3-14.6-1.9-16.4-.6-1.5-1.6-2.8-2.7-3.6-3.2-1.9-5.3-2.8-6.2-2.8-.1 0-.3.4-.4 1.2-.3.5-.4 1.5-.4 3.1v.5c0 .3 0 1.7-.1 4v4.3c-.1 1-.1 2.8-.1 5.4 0 3.1 0 5.4-.1 7.2 0 1.8 0 3-.1 3.7V296.3c.1.3.1.5.1.6 0 .1 0 .3-.1.5v.4c0 .4-.8.8-2.3 1.2-.5 0-1 .1-1.5.1-2.8 0-4.3-.3-4.4-.8-.1-.6-.1-1.9-.1-3.9v-4.3c.1-1.6.1-3.7.3-6.6.1-2.8.1-5.4.3-7.9 0-1 .1-2.7.3-4.9v-10.1c.1-2.3.1-4 .1-5.3 0-.3 0-.6.1-1v-1.8c-.1-.4-.1-.6-.1-.9 0-.5 0-1 .1-1.7v-2.2c.1-1.8.3-3.1.3-4-.1-1-.1-2.6-.1-4.4v-13c0-2.5.1-4.3.3-5.4-.1-1.4-.3-2.3-.3-2.8 0-.4 0-.9.1-1.7v-1.8c.1-1.3.1-3 .1-4.9.1-4.1.5-6.3 1.2-6.6.5-.1 1.4-.3 2.8-.4 2.5-.3 4.9-.4 7.5-.4.4 0 .8-.1 1-.1l4.3.4c.8.1 1.9.5 3.4 1 2.2 1.3 4 3.4 5.1 6.5zm-18.2.7c-.3 1.5-.4 2.8-.4 4.1 0 .9-.1 3.7-.1 8.4-.3 4.7-.3 7.5-.3 11.2 0 6.2 0 10.3.1 12.7.1.5.1 1.3.1 2.3v.9c.1.5.4.9.5 1.3l.6.3c.1 0 .5-.1 1.4-.1.9-.1 1.6-.4 1.9-.6 0-.1.1-.3.5-.5l1.2-.9c.4-.4.8-.6 1-.9 1.8-2.2 3.1-4.7 3.9-7.5 1.2-4.4 1.8-9.4 1.8-18 0-4.9-.3-8.3-1.4-10.5-1.3-2.5-3.5-3.4-7.4-3.4-1.6 0-2.5-.1-2.6-.3-.3.2-.6.8-.8 1.5zM579.2 295.5c0-.1.3-1 0-2.8-.1-2.5-.1-7.1-.1-15.2 0-2.2 0-3.7-.1-4.9.1-.5.1-1.4.1-2.8 0-1 0-1.8-.1-2.3.1-.4.1-1.2.1-2.5 0-8 .1-14 .1-21.8v-6.5c.1-2.5.3-6.2.3-11.1V216c0-2.3 0-3.9.1-4.8-.1-.4-.1-1-.1-1.7v-5.6l-.1-.3c0-.1 2.3-.4 6.8-.5 2.7 0 8.3 0 9.7.1.5-.1 1.4-.1 2.6-.1 1.2.1 1.9.3 2.3.3 1.3.1 2.1.4 2.2.5l.1.1v.3l.3.6v.3c0 .3 0 .5.1.9s.1.6.1.8v.9c0 1.7-.1 3.6-.4 3.6l-.1.1-.8.3h-.8c-.4.1-.8.1-1 .1h-2.6c-.6 0-1.4.1-2.5.3-3-.1-6.8-.3-7-.4v.3c0 .3-.1.4-.3.5-.1.6.1 1.4 0 1.7.3.9 0 1.7 0 3 0 .4 0 1-.1 1.9V242c.3 4.9 0 6.5.1 10.6h1.8c.4 0 4.5 0 5.2-.1h1.7c1 0 1.8.1 2.5.5.3.1.5.8.6 1.9v.6c0 1.4.1 1.8.1 3.4v.6c-.1 1.3-.4 1.9-.8 1.9-.7.3-1.7.4-3 .4h-6.6c-1 0-1.4-.3-1.7.3-.1.4.1 1.3 0 1.8-.1.9-.3 3.2-.3 4.4v8.1c0 .5 0 1.2-.1 2.1v11.4c.6-.1.5-.1 1.9-.1s5.8 0 6.2-.1h1.8c.8.1 1.3.1 1.4.1h5.3c.6.1.9 1.6.9 4.4 0 3-.1 4.5-.5 4.5-.6.4-1.6.5-2.6.5h-1.3c-.5-.1-1.2-.1-1.7-.1h-.9c-.9-.1-5.9-.1-8.3-.1h-5c-.4.1-1 .1-1.9.1-1.2 0-2.6-.3-3.6-.9v-.3c-.1-.3-.1-.4-.1-.5v-1.9zM631.4 203.7c.9.9 1.3 1.7 1.4 2.5.8 1.7 1.2 2.7 1.2 3.1.1.4.4 1.2.5 2.1.1.9.3 1.6.4 1.8.3 1.6.4 3.2.4 4.9l.3 4.9v1.9c-.1.4-.3.5-.3.6v.3c.1.1.1.3.1.4-.4.4-1.2.6-2.3.6h-.6c-.4 0-1.5-.1-3.4-.4-1.4-.8-2.2-1.3-2.2-1.7v-.1c-.1-.8-.3-3-.3-6.7 0-2.3-.1-4.1-.5-5.4-.4-1.4-.9-2.6-1.8-3.2-.4-.4-.9-.7-1.7-.7h-.5c-.1.1-.4.1-.5.1-1.4.4-2.6 1-3.5 2.2l-1.5 2.6c-.4.9-.6 1.9-.8 3.1v.9c0 2.1.4 4.5 1.2 7.2.4 1.3.9 2.8 1.8 4.8.6 1.4 2.3 4.7 5 9.7 1.4 2.6 2.8 5.7 4.5 9.2.1.4.4 1 .8 1.9.4.9.8 1.5.9 1.9.1.3.6 1.6 1.5 4 0 .4 0 .8.1 1.3s.1.9.3 1.3c.3.3.6.9 1 1.9.1.6.5 2.2 1.2 4.8 0 .1.3 1.8.8 4.9.4 3.2.6 5.9.6 8.4 0 4.3-.5 8-1.4 11.2-.4 1.4-.8 2.7-1.4 3.9-.3.9-.9 1.8-1.9 2.7-.1.4-.9 1-2.2 1.9-.9.4-1.8.6-3 .8h-.9c-.4.1-.8.1-.9.1-.1 0-.5 0-1-.1h-1c-4.8-.6-9.7-1.8-11.1-3.7-1.4-1.9-2.2-5.6-2.3-10.9 0-2.5 0-4.5.1-6.2-.1-.6-.3-1.2-.3-1.3 0-.4.1-.9.3-1.8-.1-.3-.3-.6-.3-1.2 0-.5.1-.9.3-1.2-.1-.1-.1-.4-.1-.8v-.6c0-.1 0-.3-.1-.4.1-.4.9-.6 2.3-1 .1 0 .3 0 .6-.1h.8c.5 0 1.2.1 2.1.3 1.2.1 1.9.5 2.1 1 0 .4 0 1.2-.1 2.2v2.8c0 2.3.1 4.4.3 6.1.6 6.3 1.9 9.6 4.1 9.6.3 0 2.6-.1 3.2-.3.6-.1 1.2-.5 1.7-1.2.4-.5.6-1.3.9-2.5.4-.9.6-2.1.6-3.5.1-.6.1-1.7.1-3 .1-1.3.1-2.2.1-2.6 0-.6 0-1.8-.1-3.2v-3.6c-.3-5.8-3.2-14.7-8.9-26.5-.3-.5-.6-1.3-1-2.3-.4-1-.8-1.8-1-2.3l-1-2.2c-.4-.9-.8-1.7-1-2.5l-1.9-4.3c-1.9-5.3-3.2-9.4-3.6-12.5-.1-1.7-.3-3-.3-3.6 0-3.7 1.2-7.5 3-10.1 1.5-2.2 4-3.6 7.4-4.3 1.9-.4 4-.6 6.3-.6 2.1 0 3.7.3 4.9.9.3.7.9 1.2 1.5 1.8z"/></g></g></svg>