<svg xmlns="http://www.w3.org/2000/svg" viewBox="0 0 1049.91 108.06"><title>TPITV_Logo</title><path d="M21.33 86.21q-5.66 0-8.79-3.14t-3.13-9.68V35.31h-8a1.49 1.49 0 0 1-1-.34 1.18 1.18 0 0 1-.39-1v-2.02l9.52-.67 1.33-19.94a1.55 1.55 0 0 1 .41-.9 1.25 1.25 0 0 1 1-.39h2.43v21.28h17.54v4H14.71v37.73a11.79 11.79 0 0 0 .6 4 7.36 7.36 0 0 0 1.62 2.72 6.36 6.36 0 0 0 2.44 1.57 8.86 8.86 0 0 0 3 .5 9.27 9.27 0 0 0 3.47-.59 14.4 14.4 0 0 0 2.52-1.29 16.34 16.34 0 0 0 1.74-1.29 1.91 1.91 0 0 1 1.06-.59 1.22 1.22 0 0 1 .9.56L33.52 81a15.55 15.55 0 0 1-5.4 3.78 16.87 16.87 0 0 1-6.79 1.43zM72.91 28.7a26.8 26.8 0 0 1 10.72 2 21.87 21.87 0 0 1 8 5.8 25.7 25.7 0 0 1 5 9 38.46 38.46 0 0 1 1.71 11.84 38.19 38.19 0 0 1-1.71 11.82 25.73 25.73 0 0 1-5 9 21.57 21.57 0 0 1-8 5.77 29.54 29.54 0 0 1-21.45 0 21.82 21.82 0 0 1-8-5.77 25.46 25.46 0 0 1-5-9 38.16 38.16 0 0 1-1.71-11.82 38.43 38.43 0 0 1 1.71-11.84 25.43 25.43 0 0 1 5-9 22.12 22.12 0 0 1 8-5.8 26.8 26.8 0 0 1 10.73-2zm0 53.14a20.7 20.7 0 0 0 8.71-1.71 16.48 16.48 0 0 0 6.22-4.9 21.6 21.6 0 0 0 3.72-7.7 38.37 38.37 0 0 0 1.23-10.11 38.45 38.45 0 0 0-1.23-10.08 21.9 21.9 0 0 0-3.72-7.76 16.64 16.64 0 0 0-6.22-5 22.71 22.71 0 0 0-17.42 0 16.63 16.63 0 0 0-6.22 5 22.24 22.24 0 0 0-3.75 7.76 37.61 37.61 0 0 0-1.26 10.08 37.53 37.53 0 0 0 1.26 10.11 21.94 21.94 0 0 0 3.75 7.7 16.47 16.47 0 0 0 6.22 4.9 20.69 20.69 0 0 0 8.71 1.71zM117.88 85.32V29.6h2.91a1.52 1.52 0 0 1 1.68 1.4l.5 8.06a35.24 35.24 0 0 1 3.47-4.2 23.19 23.19 0 0 1 3.95-3.28 18.26 18.26 0 0 1 4.48-2.13 16.46 16.46 0 0 1 5-.76q6.1 0 9.74 3.56a18.61 18.61 0 0 1 4.93 9.88 19.35 19.35 0 0 1 2.82-6 17.68 17.68 0 0 1 4.17-4.17 17.31 17.31 0 0 1 5.18-2.45 20.08 20.08 0 0 1 5.68-.81 19.22 19.22 0 0 1 7.38 1.36 14.87 14.87 0 0 1 5.62 4.06 18.41 18.41 0 0 1 3.55 6.61 29.93 29.93 0 0 1 1.23 9v35.62h-5.32V49.7q0-8.18-3.53-12.46t-10.08-4.28a14.87 14.87 0 0 0-5.53 1.1 13.49 13.49 0 0 0-4.7 3.16 15.19 15.19 0 0 0-3.3 5.2 20.23 20.23 0 0 0-1.2 7.28v35.62h-5.32V49.7q0-8.12-3.25-12.43t-9.46-4.31a14.31 14.31 0 0 0-8.4 2.72 25.79 25.79 0 0 0-6.89 7.53v42.11zM233.79 28.7a26.8 26.8 0 0 1 10.72 2 21.87 21.87 0 0 1 8 5.8 25.7 25.7 0 0 1 5 9 38.46 38.46 0 0 1 1.71 11.84 38.19 38.19 0 0 1-1.71 11.82 25.73 25.73 0 0 1-5 9 21.57 21.57 0 0 1-8 5.77 29.54 29.54 0 0 1-21.45 0 21.82 21.82 0 0 1-8-5.77 25.46 25.46 0 0 1-5-9 38.16 38.16 0 0 1-1.71-11.82 38.43 38.43 0 0 1 1.71-11.84 25.43 25.43 0 0 1 5-9 22.12 22.12 0 0 1 8-5.8 26.8 26.8 0 0 1 10.73-2zm0 53.14a20.7 20.7 0 0 0 8.71-1.71 16.48 16.48 0 0 0 6.22-4.9 21.6 21.6 0 0 0 3.72-7.7 38.37 38.37 0 0 0 1.27-10.1 38.45 38.45 0 0 0-1.23-10.08 21.9 21.9 0 0 0-3.77-7.76 16.64 16.64 0 0 0-6.22-5 22.71 22.71 0 0 0-17.42 0 16.63 16.63 0 0 0-6.22 5 22.24 22.24 0 0 0-3.75 7.76 37.61 37.61 0 0 0-1.26 10.08 37.53 37.53 0 0 0 1.26 10.11 21.94 21.94 0 0 0 3.75 7.7 16.47 16.47 0 0 0 6.22 4.9 20.69 20.69 0 0 0 8.72 1.7zM278.76 85.32V29.6h2.8a2 2 0 0 1 1.37.39 2 2 0 0 1 .48 1.34l.45 11.73a26.5 26.5 0 0 1 7.17-10.61 16.38 16.38 0 0 1 11-3.84 19.18 19.18 0 0 1 4.65.53 17.87 17.87 0 0 1 4 1.54l-.73 3.7a1 1 0 0 1-1.12.9 3 3 0 0 1-1-.22q-.62-.22-1.54-.5a18.53 18.53 0 0 0-2.27-.5 19 19 0 0 0-3.08-.22 14.34 14.34 0 0 0-10.23 3.93q-4.06 3.92-6.58 11.31v36.23zM328.82 85.32V29.6h2.8a2 2 0 0 1 1.37.39 2 2 0 0 1 .48 1.34l.45 11.73a26.5 26.5 0 0 1 7.17-10.61 16.38 16.38 0 0 1 11-3.84 19.18 19.18 0 0 1 4.65.53 17.87 17.87 0 0 1 4 1.54l-.73 3.7a1 1 0 0 1-1.12.9 3 3 0 0 1-1-.22q-.62-.22-1.54-.5a18.53 18.53 0 0 0-2.27-.5 19 19 0 0 0-3.08-.22 14.34 14.34 0 0 0-10.29 3.93q-4 3.92-6.57 11.29v36.23zM400.11 28.7a26.8 26.8 0 0 1 10.72 2 21.87 21.87 0 0 1 8 5.8 25.7 25.7 0 0 1 5 9 38.46 38.46 0 0 1 1.71 11.84 38.19 38.19 0 0 1-1.71 11.82 25.73 25.73 0 0 1-5 9 21.57 21.57 0 0 1-8 5.77 29.54 29.54 0 0 1-21.45 0 21.82 21.82 0 0 1-8-5.77 25.46 25.46 0 0 1-5-9 38.16 38.16 0 0 1-1.67-11.73 38.43 38.43 0 0 1 1.71-11.84 25.43 25.43 0 0 1 5-9 22.12 22.12 0 0 1 8-5.8 26.8 26.8 0 0 1 10.69-2.09zm0 53.14a20.7 20.7 0 0 0 8.71-1.71 16.48 16.48 0 0 0 6.22-4.9 21.6 21.6 0 0 0 3.72-7.7 38.37 38.37 0 0 0 1.23-10.11 38.45 38.45 0 0 0-1.28-10.07 21.9 21.9 0 0 0-3.72-7.76 16.64 16.64 0 0 0-6.22-5 22.71 22.71 0 0 0-17.42 0 16.63 16.63 0 0 0-6.22 5 22.24 22.24 0 0 0-3.75 7.76 37.61 37.61 0 0 0-1.26 10.08 37.53 37.53 0 0 0 1.26 10.11 21.94 21.94 0 0 0 3.75 7.7 16.47 16.47 0 0 0 6.22 4.9 20.69 20.69 0 0 0 8.76 1.7zM437.24 29.6h4.09a1.94 1.94 0 0 1 1.29.42 2.06 2.06 0 0 1 .67.92l14.06 44a24.09 24.09 0 0 1 .62 2.46l.45 2.35q.28-1.17.62-2.35t.78-2.46l15-44.35a1.55 1.55 0 0 1 1.57-1.23h2.18a1.58 1.58 0 0 1 1.62 1.23l14.73 44.35a45.87 45.87 0 0 1 1.34 4.87c.15-.79.31-1.58.48-2.38a20.19 20.19 0 0 1 .7-2.49l14.11-44a1.83 1.83 0 0 1 1.9-1.34h3.92l-18.66 55.72h-4q-.9 0-1.29-1.18l-15.25-45.25q-.28-.84-.5-1.68t-.39-1.68q-.17.84-.36 1.68t-.48 1.68l-15.46 45.25a1.36 1.36 0 0 1-1.34 1.18h-3.75z" fill="#fff"/><path d="M575.55 60.27q0 11.81-5.14 19t-14.38 7.19a13.28 13.28 0 0 1-11.32-5.74v27.34h-15.53V26.14h14.38l.55 5.85a16.06 16.06 0 0 1 5.06-5.14 12.6 12.6 0 0 1 6.75-1.8 16.45 16.45 0 0 1 14.49 7.68q5.14 7.68 5.14 20.26zm-15.53-7.3q0-7-2-11.25t-6.18-4.25a7.38 7.38 0 0 0-4.27 1.23 8.72 8.72 0 0 0-2.9 3.48v27.88a7.37 7.37 0 0 0 2.87 3 8.86 8.86 0 0 0 4.35 1 6.46 6.46 0 0 0 6.21-3.67q1.89-3.67 1.89-10.13zM605.44 11.87H589.9V0h15.53zm0 73.44H589.9V26.14h15.53zM643.47 74.06a5.43 5.43 0 0 0 4.79-2.35q1.61-2.35 1.61-6.78h14.11l.16.33q.16 9.3-5.71 15.26a20.11 20.11 0 0 1-15 6q-11.48 0-17.64-7.49t-6.08-19.42v-7.55q0-11.81 6.13-19.39t17.52-7.61q9.62 0 15.29 6.18t5.5 16.68l-.11.27h-14.18a16.17 16.17 0 0 0-1.61-7.78 5.25 5.25 0 0 0-4.89-2.94 6.4 6.4 0 0 0-6.4 3.94 26.45 26.45 0 0 0-1.75 10.57v7.61q0 6.79 1.75 10.63t6.51 3.84zM695.71 11.43v14.71h8.2v11.27h-8.2v29.65q0 3.61 1 5.17a3.25 3.25 0 0 0 2.84 1.56 17.78 17.78 0 0 0 2.41-.14 17.39 17.39 0 0 0 2.19-.46l1.2 11.81a31 31 0 0 1-4.7 1.09 35.42 35.42 0 0 1-5.09.33q-7.49 0-11.46-4.62t-4-14.68V37.41h-7V26.14h7V11.43zM748.29 78.48a17.46 17.46 0 0 1-5.82 5.93 14.75 14.75 0 0 1-7.76 2.05 14.57 14.57 0 0 1-12.39-6q-4.46-6-4.46-18.57V26.14h15.53v35.92q0 6.3 1.53 9.14a4.88 4.88 0 0 0 4.54 2.85 10.08 10.08 0 0 0 4.51-1 9.07 9.07 0 0 0 3.31-2.82V26.14h15.59v59.17h-13.65zM806.23 40.31l-5.85-.16a6.63 6.63 0 0 0-4.07 1.2 7.65 7.65 0 0 0-2.49 3.39v40.58h-15.54V26.14h14.49l.6 7.93.27.11a16.14 16.14 0 0 1 4-6.7 8.32 8.32 0 0 1 5.91-2.42 13.82 13.82 0 0 1 2.21.19 15.1 15.1 0 0 1 2.05.46zM841.71 86.46q-11.16 0-17.72-7.33t-6.56-18.48v-8.31q0-12 6.1-19.63t16.84-7.65q10.39 0 16.08 6.95t5.69 18.92v9.52h-29.26v.22a16.35 16.35 0 0 0 2.65 9.63q2.65 3.77 8 3.77a21.38 21.38 0 0 0 7.11-1 37.39 37.39 0 0 0 6.51-3.28l3.94 9.9a23.45 23.45 0 0 1-8.18 4.87 31.82 31.82 0 0 1-11.2 1.9zm-1.31-49a5.77 5.77 0 0 0-5.47 3.41 22.08 22.08 0 0 0-2 9.17h13.95v-2.2a15.79 15.79 0 0 0-1.53-7.66 5.28 5.28 0 0 0-4.98-2.72zM901.32 69.84a5.75 5.75 0 0 0-2-4.35 33.19 33.19 0 0 0-7.55-4.51q-8.92-3.33-13.37-7.55a14.36 14.36 0 0 1-4.46-10.94 16 16 0 0 1 5.77-12.33q5.69-5.1 15.1-5.1 9.84 0 15.7 5.25a16.56 16.56 0 0 1 5.63 13.4l-.16.33h-15a10.14 10.14 0 0 0-1.53-5.91 5.35 5.35 0 0 0-4.7-2.19 5.9 5.9 0 0 0-4.27 1.7 5.84 5.84 0 0 0 0 8.34q1.75 1.61 7.6 4.4 9.3 3.17 13.78 7.52a16.17 16.17 0 0 1-1.53 23.76q-6 4.81-15.8 4.81-10.23 0-16.19-6t-5.63-13.41l.11-.33h14.22q.11 4.71 2.19 6.78a7.75 7.75 0 0 0 5.74 2.08 6.72 6.72 0 0 0 4.74-1.53 5.48 5.48 0 0 0 1.61-4.22zM946.84 85.32h-15.37V71.21h15.37zM983.5 11.43v14.71h8.2v11.27h-8.2v29.65q0 3.61 1 5.17a3.25 3.25 0 0 0 2.84 1.56 17.78 17.78 0 0 0 2.41-.14 17.39 17.39 0 0 0 2.19-.46l1.2 11.81a31 31 0 0 1-4.7 1.09 35.41 35.41 0 0 1-5.09.33q-7.49 0-11.46-4.62t-4-14.68V37.41h-7V26.14h7V11.43zM1025.03 63l.71 4.48h.33l.77-4.48 6.87-36.86h16.24l-16.41 59.17h-15.2l-16.46-59.17h16.24z" fill="#c0392b"/></svg>