<?xml version="1.0" standalone="no"?>
<!DOCTYPE svg PUBLIC "-//W3C//DTD SVG 20010904//EN"
 "http://www.w3.org/TR/2001/REC-SVG-20010904/DTD/svg10.dtd">
<svg version="1.0" xmlns="http://www.w3.org/2000/svg"
 width="700.000000pt" height="700.000000pt" viewBox="0 0 700.000000 700.000000"
 preserveAspectRatio="xMidYMid meet">
<metadata>
Created by potrace 1.11, written by Peter Selinger 2001-2013
</metadata>
<g transform="translate(0.000000,700.000000) scale(0.100000,-0.100000)"
fill="#000000" stroke="none">
<path d="M3418 6835 c-2 -2 -43 -6 -92 -10 -49 -4 -100 -9 -115 -11 -25 -4
-90 -16 -101 -19 -3 0 -27 -5 -55 -9 -27 -4 -97 -21 -155 -38 -58 -16 -109
-30 -115 -32 -5 -1 -14 -4 -20 -7 -5 -4 -34 -14 -64 -24 -73 -24 -227 -96
-314 -147 -198 -116 -403 -302 -521 -471 -184 -265 -268 -493 -302 -817 -6
-62 -7 -324 0 -355 2 -11 7 -49 11 -85 32 -295 199 -644 449 -939 64 -74 225
-231 306 -297 125 -101 511 -383 705 -515 236 -161 447 -325 583 -454 210
-201 391 -479 427 -658 3 -10 7 -27 10 -37 27 -84 38 -310 21 -420 -37 -243
-195 -446 -442 -569 -119 -59 -233 -84 -389 -86 -298 -5 -514 74 -782 287 -37
29 -63 44 -64 36 -1 -7 -2 -183 -3 -391 -1 -325 1 -380 14 -391 8 -8 44 -29
80 -48 228 -121 448 -167 770 -162 80 1 164 5 188 8 23 3 61 8 85 12 23 3 50
7 59 10 9 3 25 6 35 8 306 61 591 219 788 438 91 102 84 93 136 173 100 158
166 324 204 516 27 138 33 435 11 548 -3 14 -8 45 -11 69 -34 244 -197 581
-409 842 -61 75 -255 274 -331 340 -135 117 -341 274 -715 545 -341 247 -478
360 -649 533 -262 268 -374 496 -388 795 -15 330 85 598 307 816 190 188 497
324 806 358 107 12 351 8 429 -6 39 -8 77 -15 85 -16 53 -10 126 -33 200 -62
409 -164 641 -484 640 -883 0 -129 -6 -176 -35 -263 -43 -126 -123 -230 -270
-351 -89 -73 -81 -66 -147 -106 -32 -19 -58 -37 -58 -40 0 -3 100 -107 223
-232 l222 -227 76 47 c140 87 213 145 324 256 220 222 342 461 373 731 9 80 8
284 -1 364 -38 317 -157 580 -371 825 -220 251 -516 435 -863 536 -88 25 -238
58 -302 65 -25 3 -62 8 -81 11 -34 5 -397 13 -402 9z"/>
<path d="M1789 2670 c-4 -31 1 -2233 5 -2238 7 -6 243 -11 263 -4 9 3 12 138
11 550 l0 547 391 3 391 2 0 128 0 128 -390 0 -390 -1 -1 70 c0 39 0 180 0
315 l0 245 333 2 c183 1 365 2 404 3 l70 0 0 127 -1 128 -543 0 c-298 0 -542
-2 -543 -5z"/>
</g>
</svg>
