<svg version="1" xmlns="http://www.w3.org/2000/svg" width="933.333" height="933.333" viewBox="0 0 700.000000 700.000000"><path d="M341.8 16.5c-.2.2-4.3.6-9.2 1-4.9.4-10 .9-11.5 1.1-2.5.4-9 1.6-10.1 1.9-.3 0-2.7.5-5.5.9-2.7.4-9.7 2.1-15.5 3.8-5.8 1.6-10.9 3-11.5 3.2-.5.1-1.4.4-2 .7-.5.4-3.4 1.4-6.4 2.4-7.3 2.4-22.7 9.6-31.4 14.7-19.8 11.6-40.3 30.2-52.1 47.1-18.4 26.5-26.8 49.3-30.2 81.7-.6 6.2-.7 32.4 0 35.5.2 1.1.7 4.9 1.1 8.5 3.2 29.5 19.9 64.4 44.9 93.9 6.4 7.4 22.5 23.1 30.6 29.7 12.5 10.1 51.1 38.3 70.5 51.5 23.6 16.1 44.7 32.5 58.3 45.4 21 20.1 39.1 47.9 42.7 65.8.3 1 .7 2.7 1 3.7 2.7 8.4 3.8 31 2.1 42-3.7 24.3-19.5 44.6-44.2 56.9-11.9 5.9-23.3 8.4-38.9 8.6-29.8.5-51.4-7.4-78.2-28.7-3.7-2.9-6.3-4.4-6.4-3.6-.1.7-.2 18.3-.3 39.1-.1 32.5.1 38 1.4 39.1.8.8 4.4 2.9 8 4.8 22.8 12.1 44.8 16.7 77 16.2 8-.1 16.4-.5 18.8-.8 2.3-.3 6.1-.8 8.5-1.2 2.3-.3 5-.7 5.9-1 .9-.3 2.5-.6 3.5-.8 30.6-6.1 59.1-21.9 78.8-43.8 9.1-10.2 8.4-9.3 13.6-17.3 10-15.8 16.6-32.4 20.4-51.6 2.7-13.8 3.3-43.5 1.1-54.8-.3-1.4-.8-4.5-1.1-6.9-3.4-24.4-19.7-58.1-40.9-84.2-6.1-7.5-25.5-27.4-33.1-34-13.5-11.7-34.1-27.4-71.5-54.5-34.1-24.7-47.8-36-64.9-53.3-26.2-26.8-37.4-49.6-38.8-79.5-1.5-33 8.5-59.8 30.7-81.6 19-18.8 49.7-32.4 80.6-35.8 10.7-1.2 35.1-.8 42.9.6 3.9.8 7.7 1.5 8.5 1.6 5.3 1 12.6 3.3 20 6.2 40.9 16.4 64.1 48.4 64 88.3 0 12.9-.6 17.6-3.5 26.3-4.3 12.6-12.3 23-27 35.1-8.9 7.3-8.1 6.6-14.7 10.6-3.2 1.9-5.8 3.7-5.8 4 0 .3 10 10.7 22.3 23.2l22.2 22.7 7.6-4.7c14-8.7 21.3-14.5 32.4-25.6 22-22.2 34.2-46.1 37.3-73.1.9-8 .8-28.4-.1-36.4-3.8-31.7-15.7-58-37.1-82.5-22-25.1-51.6-43.5-86.3-53.6-8.8-2.5-23.8-5.8-30.2-6.5-2.5-.3-6.2-.8-8.1-1.1-3.4-.5-39.7-1.3-40.2-.9z"/><path d="M178.9 433c-.4 3.1.1 223.3.5 223.8.7.6 24.3 1.1 26.3.4.9-.3 1.2-13.8 1.1-55v-54.7l39.1-.3 39.1-.2v-25.6h-39l-39 .1-.1-7v-56l33.3-.2c18.3-.1 36.5-.2 40.4-.3h7v-12.7l-.1-12.8h-54.3c-29.8 0-54.2.2-54.3.5z"/></svg>