<svg id="url" xmlns="http://www.w3.org/2000/svg" viewBox="0 0 1049.91 108.06"><title>TPITV_Logo</title><path d="M45.62,112.15q-5.66,0-8.79-3.14T33.7,99.33V61.25h-8a1.49,1.49,0,0,1-1-.34,1.18,1.18,0,0,1-.39-1V57.89l9.52-.67,1.33-19.94a1.55,1.55,0,0,1,.41-.9,1.25,1.25,0,0,1,1-.39H39V57.27H56.54v4H39V99A11.79,11.79,0,0,0,39.6,103a7.36,7.36,0,0,0,1.62,2.72,6.36,6.36,0,0,0,2.44,1.57,8.86,8.86,0,0,0,3,.5,9.27,9.27,0,0,0,3.47-.59,14.4,14.4,0,0,0,2.52-1.29,16.34,16.34,0,0,0,1.74-1.29,1.91,1.91,0,0,1,1.06-.59,1.22,1.22,0,0,1,.9.56l1.46,2.35a15.55,15.55,0,0,1-5.4,3.78A16.87,16.87,0,0,1,45.62,112.15Z" transform="translate(-24.29 -25.94)" style="fill:#fff"/><path d="M97.2,54.64a26.8,26.8,0,0,1,10.72,2,21.87,21.87,0,0,1,8,5.8,25.7,25.7,0,0,1,5,9,38.46,38.46,0,0,1,1.71,11.84,38.19,38.19,0,0,1-1.71,11.82,25.73,25.73,0,0,1-5,9,21.57,21.57,0,0,1-8,5.77,29.54,29.54,0,0,1-21.45,0,21.82,21.82,0,0,1-8-5.77,25.46,25.46,0,0,1-5-9,38.16,38.16,0,0,1-1.71-11.82,38.43,38.43,0,0,1,1.71-11.84,25.43,25.43,0,0,1,5-9,22.12,22.12,0,0,1,8-5.8A26.8,26.8,0,0,1,97.2,54.64Zm0,53.14a20.7,20.7,0,0,0,8.71-1.71,16.48,16.48,0,0,0,6.22-4.9,21.6,21.6,0,0,0,3.72-7.7,38.37,38.37,0,0,0,1.23-10.11,38.45,38.45,0,0,0-1.23-10.08,21.9,21.9,0,0,0-3.72-7.76,16.64,16.64,0,0,0-6.22-5,22.71,22.71,0,0,0-17.42,0,16.63,16.63,0,0,0-6.22,5,22.24,22.24,0,0,0-3.75,7.76,37.61,37.61,0,0,0-1.26,10.08,37.53,37.53,0,0,0,1.26,10.11,21.94,21.94,0,0,0,3.75,7.7,16.47,16.47,0,0,0,6.22,4.9A20.69,20.69,0,0,0,97.2,107.78Z" transform="translate(-24.29 -25.94)" style="fill:#fff"/><path d="M142.17,111.26V55.54h2.91a1.52,1.52,0,0,1,1.68,1.4l.5,8.06a35.24,35.24,0,0,1,3.47-4.2,23.19,23.19,0,0,1,3.95-3.28,18.26,18.26,0,0,1,4.48-2.13,16.46,16.46,0,0,1,5-.76q6.1,0,9.74,3.56a18.61,18.61,0,0,1,4.93,9.88,19.35,19.35,0,0,1,2.82-6,17.68,17.68,0,0,1,4.17-4.17A17.31,17.31,0,0,1,191,55.45a20.08,20.08,0,0,1,5.68-.81A19.22,19.22,0,0,1,204.06,56a14.87,14.87,0,0,1,5.62,4.06,18.41,18.41,0,0,1,3.55,6.61,29.93,29.93,0,0,1,1.23,9v35.62h-5.32V75.64q0-8.18-3.53-12.46T195.53,58.9A14.87,14.87,0,0,0,190,60a13.49,13.49,0,0,0-4.7,3.16A15.19,15.19,0,0,0,182,68.36a20.23,20.23,0,0,0-1.2,7.28v35.62h-5.32V75.64q0-8.12-3.25-12.43t-9.46-4.31a14.31,14.31,0,0,0-8.4,2.72,25.79,25.79,0,0,0-6.89,7.53v42.11Z" transform="translate(-24.29 -25.94)" style="fill:#fff"/><path d="M258.08,54.64a26.8,26.8,0,0,1,10.72,2,21.87,21.87,0,0,1,8,5.8,25.7,25.7,0,0,1,5,9,38.46,38.46,0,0,1,1.71,11.84,38.19,38.19,0,0,1-1.71,11.82,25.73,25.73,0,0,1-5,9,21.57,21.57,0,0,1-8,5.77,29.54,29.54,0,0,1-21.45,0,21.82,21.82,0,0,1-8-5.77,25.46,25.46,0,0,1-5-9,38.16,38.16,0,0,1-1.71-11.82,38.43,38.43,0,0,1,1.71-11.84,25.43,25.43,0,0,1,5-9,22.12,22.12,0,0,1,8-5.8A26.8,26.8,0,0,1,258.08,54.64Zm0,53.14a20.7,20.7,0,0,0,8.71-1.71,16.48,16.48,0,0,0,6.22-4.9,21.6,21.6,0,0,0,3.72-7.7A38.37,38.37,0,0,0,278,83.37a38.45,38.45,0,0,0-1.23-10.08A21.9,21.9,0,0,0,273,65.53a16.64,16.64,0,0,0-6.22-5,22.71,22.71,0,0,0-17.42,0,16.63,16.63,0,0,0-6.22,5,22.24,22.24,0,0,0-3.75,7.76,37.61,37.61,0,0,0-1.26,10.08,37.53,37.53,0,0,0,1.26,10.11,21.94,21.94,0,0,0,3.75,7.7,16.47,16.47,0,0,0,6.22,4.9A20.69,20.69,0,0,0,258.08,107.78Z" transform="translate(-24.29 -25.94)" style="fill:#fff"/><path d="M303.05,111.26V55.54h2.8a2,2,0,0,1,1.37.39,2,2,0,0,1,.48,1.34L308.15,69a26.5,26.5,0,0,1,7.17-10.61,16.38,16.38,0,0,1,11-3.84,19.18,19.18,0,0,1,4.65.53,17.87,17.87,0,0,1,4,1.54l-.73,3.7a1,1,0,0,1-1.12.9,3,3,0,0,1-1-.22q-.62-.22-1.54-.5a18.53,18.53,0,0,0-2.27-.5,19,19,0,0,0-3.08-.22A14.34,14.34,0,0,0,315,63.71q-4.06,3.92-6.58,11.31v36.23Z" transform="translate(-24.29 -25.94)" style="fill:#fff"/><path d="M353.11,111.26V55.54h2.8a2,2,0,0,1,1.37.39,2,2,0,0,1,.48,1.34L358.21,69a26.5,26.5,0,0,1,7.17-10.61,16.38,16.38,0,0,1,11-3.84,19.18,19.18,0,0,1,4.65.53,17.87,17.87,0,0,1,4,1.54l-.73,3.7a1,1,0,0,1-1.12.9,3,3,0,0,1-1-.22q-.62-.22-1.54-.5a18.53,18.53,0,0,0-2.27-.5,19,19,0,0,0-3.08-.22A14.34,14.34,0,0,0,365,63.71Q361,67.63,358.43,75v36.23Z" transform="translate(-24.29 -25.94)" style="fill:#fff"/><path d="M424.4,54.64a26.8,26.8,0,0,1,10.72,2,21.87,21.87,0,0,1,8,5.8,25.7,25.7,0,0,1,5,9,38.46,38.46,0,0,1,1.71,11.84,38.19,38.19,0,0,1-1.71,11.82,25.73,25.73,0,0,1-5,9,21.57,21.57,0,0,1-8,5.77,29.54,29.54,0,0,1-21.45,0,21.82,21.82,0,0,1-8-5.77,25.46,25.46,0,0,1-5-9A38.16,38.16,0,0,1,399,83.37a38.43,38.43,0,0,1,1.71-11.84,25.43,25.43,0,0,1,5-9,22.12,22.12,0,0,1,8-5.8A26.8,26.8,0,0,1,424.4,54.64Zm0,53.14a20.7,20.7,0,0,0,8.71-1.71,16.48,16.48,0,0,0,6.22-4.9,21.6,21.6,0,0,0,3.72-7.7,38.37,38.37,0,0,0,1.23-10.11A38.45,38.45,0,0,0,443,73.29a21.9,21.9,0,0,0-3.72-7.76,16.64,16.64,0,0,0-6.22-5,22.71,22.71,0,0,0-17.42,0,16.63,16.63,0,0,0-6.22,5,22.24,22.24,0,0,0-3.75,7.76,37.61,37.61,0,0,0-1.26,10.08,37.53,37.53,0,0,0,1.26,10.11,21.94,21.94,0,0,0,3.75,7.7,16.47,16.47,0,0,0,6.22,4.9A20.69,20.69,0,0,0,424.4,107.78Z" transform="translate(-24.29 -25.94)" style="fill:#fff"/><path d="M461.53,55.54h4.09a1.94,1.94,0,0,1,1.29.42,2.06,2.06,0,0,1,.67.92l14.06,44a24.09,24.09,0,0,1,.62,2.46l.45,2.35q.28-1.17.62-2.35t.78-2.46l15-44.35a1.55,1.55,0,0,1,1.57-1.23h2.18a1.58,1.58,0,0,1,1.62,1.23l14.73,44.35a45.87,45.87,0,0,1,1.34,4.87c.15-.79.31-1.58.48-2.38a20.19,20.19,0,0,1,.7-2.49l14.11-44a1.83,1.83,0,0,1,1.9-1.34h3.92L523,111.26H519q-.9,0-1.29-1.18L502.46,64.83q-.28-.84-.5-1.68t-.39-1.68q-.17.84-.36,1.68t-.48,1.68l-15.46,45.25a1.36,1.36,0,0,1-1.34,1.18h-3.75Z" transform="translate(-24.29 -25.94)" style="fill:#fff"/><path d="M599.84,86.21q0,11.81-5.14,19t-14.38,7.19A13.28,13.28,0,0,1,569,106.66V134H553.47V52.08h14.38l.55,5.85a16.06,16.06,0,0,1,5.06-5.14,12.6,12.6,0,0,1,6.75-1.8,16.45,16.45,0,0,1,14.49,7.68q5.14,7.68,5.14,20.26Zm-15.53-7.3q0-7-2-11.25t-6.18-4.25a7.38,7.38,0,0,0-4.27,1.23,8.72,8.72,0,0,0-2.9,3.48V96a7.37,7.37,0,0,0,2.87,3,8.86,8.86,0,0,0,4.35,1,6.46,6.46,0,0,0,6.21-3.67q1.89-3.67,1.89-10.13Z" transform="translate(-24.29 -25.94)" style="fill:#c0392b"/><path d="M629.73,37.81H614.19V25.94h15.53Zm0,73.44H614.19V52.08h15.53Z" transform="translate(-24.29 -25.94)" style="fill:#c0392b"/><path d="M667.76,100a5.43,5.43,0,0,0,4.79-2.35q1.61-2.35,1.61-6.78h14.11l.16.33q.16,9.3-5.71,15.26a20.11,20.11,0,0,1-15,6q-11.48,0-17.64-7.49T644,85.55V78q0-11.81,6.13-19.39T667.65,51q9.62,0,15.29,6.18t5.5,16.68l-.11.27H674.15a16.17,16.17,0,0,0-1.61-7.78,5.25,5.25,0,0,0-4.89-2.94,6.4,6.4,0,0,0-6.4,3.94,26.45,26.45,0,0,0-1.75,10.57v7.61q0,6.79,1.75,10.63T667.76,100Z" transform="translate(-24.29 -25.94)" style="fill:#c0392b"/><path d="M720,37.37V52.08h8.2V63.35H720V93q0,3.61,1,5.17a3.25,3.25,0,0,0,2.84,1.56,17.78,17.78,0,0,0,2.41-.14,17.39,17.39,0,0,0,2.19-.46l1.2,11.81a31,31,0,0,1-4.7,1.09,35.42,35.42,0,0,1-5.09.33q-7.49,0-11.46-4.62t-4-14.68V63.35h-7V52.08h7V37.37Z" transform="translate(-24.29 -25.94)" style="fill:#c0392b"/><path d="M772.58,104.42a17.46,17.46,0,0,1-5.82,5.93A14.75,14.75,0,0,1,759,112.4a14.57,14.57,0,0,1-12.39-6q-4.46-6-4.46-18.57V52.08h15.53V88q0,6.3,1.53,9.14a4.88,4.88,0,0,0,4.54,2.85,10.08,10.08,0,0,0,4.51-1,9.07,9.07,0,0,0,3.31-2.82V52.08h15.59v59.17H773.51Z" transform="translate(-24.29 -25.94)" style="fill:#c0392b"/><path d="M830.52,66.25l-5.85-.16a6.63,6.63,0,0,0-4.07,1.2,7.65,7.65,0,0,0-2.49,3.39v40.58H802.57V52.08h14.49l.6,7.93.27.11a16.14,16.14,0,0,1,4-6.7A8.32,8.32,0,0,1,827.84,51a13.82,13.82,0,0,1,2.21.19,15.1,15.1,0,0,1,2.05.46Z" transform="translate(-24.29 -25.94)" style="fill:#c0392b"/><path d="M866,112.4q-11.16,0-17.72-7.33t-6.56-18.48V78.28q0-12,6.1-19.63T864.66,51q10.39,0,16.08,6.95t5.69,18.92v9.52H857.17v.22a16.35,16.35,0,0,0,2.65,9.63q2.65,3.77,8,3.77a21.38,21.38,0,0,0,7.11-1,37.39,37.39,0,0,0,6.51-3.28l3.94,9.9a23.45,23.45,0,0,1-8.18,4.87A31.82,31.82,0,0,1,866,112.4Zm-1.31-49a5.77,5.77,0,0,0-5.47,3.41,22.08,22.08,0,0,0-2,9.17h13.95v-2.2a15.79,15.79,0,0,0-1.53-7.66A5.28,5.28,0,0,0,864.66,63.4Z" transform="translate(-24.29 -25.94)" style="fill:#c0392b"/><path d="M925.61,95.78a5.75,5.75,0,0,0-2-4.35,33.19,33.19,0,0,0-7.55-4.51q-8.92-3.33-13.37-7.55a14.36,14.36,0,0,1-4.46-10.94A16,16,0,0,1,904,56.1Q909.69,51,919.1,51q9.84,0,15.7,5.25a16.56,16.56,0,0,1,5.63,13.4l-.16.33h-15a10.14,10.14,0,0,0-1.53-5.91,5.35,5.35,0,0,0-4.7-2.19,5.9,5.9,0,0,0-4.27,1.7,5.84,5.84,0,0,0,0,8.34q1.75,1.61,7.6,4.4,9.3,3.17,13.78,7.52a16.17,16.17,0,0,1-1.53,23.76q-6,4.81-15.8,4.81-10.23,0-16.19-6T897,93l.11-.33h14.22q.11,4.71,2.19,6.78a7.75,7.75,0,0,0,5.74,2.08A6.72,6.72,0,0,0,924,100,5.48,5.48,0,0,0,925.61,95.78Z" transform="translate(-24.29 -25.94)" style="fill:#c0392b"/><path d="M971.13,111.26H955.76V97.15h15.37Z" transform="translate(-24.29 -25.94)" style="fill:#c0392b"/><path d="M1007.79,37.37V52.08h8.2V63.35h-8.2V93q0,3.61,1,5.17a3.25,3.25,0,0,0,2.84,1.56,17.78,17.78,0,0,0,2.41-.14,17.39,17.39,0,0,0,2.19-.46l1.2,11.81a31,31,0,0,1-4.7,1.09,35.41,35.41,0,0,1-5.09.33q-7.49,0-11.46-4.62t-4-14.68V63.35h-7V52.08h7V37.37Z" transform="translate(-24.29 -25.94)" style="fill:#c0392b"/><path d="M1049.32,88.94l.71,4.48h.33l.77-4.48L1058,52.08h16.24l-16.41,59.17h-15.2l-16.46-59.17h16.24Z" transform="translate(-24.29 -25.94)" style="fill:#c0392b"/></svg>